<?xml version="1.0" encoding="UTF-8" standalone="no"?>
<!-- Generator: Adobe Illustrator 18.1.1, SVG Export Plug-In . SVG Version: 6.00 Build 0)  -->

<svg
   xmlns:dc="http://purl.org/dc/elements/1.1/"
   xmlns:cc="http://creativecommons.org/ns#"
   xmlns:rdf="http://www.w3.org/1999/02/22-rdf-syntax-ns#"
   xmlns:svg="http://www.w3.org/2000/svg"
   xmlns="http://www.w3.org/2000/svg"
   xmlns:sodipodi="http://sodipodi.sourceforge.net/DTD/sodipodi-0.dtd"
   xmlns:inkscape="http://www.inkscape.org/namespaces/inkscape"
   version="1.1"
   id="Capa_1"
   x="0px"
   y="0px"
   viewBox="0 0 204.12 204.12"
   style="enable-background:new 0 0 204.12 204.12;"
   xml:space="preserve"
   sodipodi:docname="speedometer-svgrepo-com.svg"
   inkscape:version="0.92.4 (e05b578f1, 2019-02-26, custom)"
   enable-background="new"><metadata
   id="metadata102"><rdf:RDF><cc:Work
       rdf:about=""><dc:format>image/svg+xml</dc:format><dc:type
         rdf:resource="http://purl.org/dc/dcmitype/StillImage" /></cc:Work></rdf:RDF></metadata><defs
   id="defs100"><inkscape:path-effect
     effect="spiro"
     id="path-effect3844"
     is_visible="true" /><filter
     inkscape:collect="always"
     style="color-interpolation-filters:sRGB"
     id="filter3817"
     x="-0.0010559811"
     width="1.002112"
     y="-0.0013781062"
     height="1.0027562"><feBlend
       inkscape:collect="always"
       mode="screen"
       in2="BackgroundImage"
       id="feBlend3819" /></filter></defs><sodipodi:namedview
   pagecolor="#ffffff"
   bordercolor="#666666"
   borderopacity="1"
   objecttolerance="10"
   gridtolerance="10"
   guidetolerance="10"
   inkscape:pageopacity="0"
   inkscape:pageshadow="2"
   inkscape:window-width="1366"
   inkscape:window-height="705"
   id="namedview98"
   showgrid="false"
   inkscape:zoom="2.6259064"
   inkscape:cx="83.123386"
   inkscape:cy="93.224097"
   inkscape:window-x="-8"
   inkscape:window-y="-8"
   inkscape:window-maximized="1"
   inkscape:current-layer="g63" />
<g
   id="g65"
   transform="translate(1.9041044,2.6657462)">
	<g
   id="g63"
   transform="matrix(0.97761183,0.00746272,0,1,-0.38082082,-4.5698506)">
		<path
   style="fill:#010002;filter:url(#filter3817)"
   d="m 97.73429,103.18034 0.075,1.131 c 0.186,3.139 2.806,5.597 5.962,5.597 3.289,0 5.97,-2.681 5.97,-5.984 0,-3.285 -2.67,-5.954996 -5.959,-5.954996 -0.39,0 -1.17,0 -1.17,0 L 72.700451,81.758482 Z"
   id="path57"
   inkscape:connector-curvature="0"
   sodipodi:nodetypes="ccsssccc"
   inkscape:transform-center-x="12.567091"
   inkscape:transform-center-y="-8.4002521"
   inkscape:label="{&quot;attr&quot;:&quot;rotate&quot;,&quot;max&quot;:110,&quot;min&quot;:0,&quot;tag&quot;:&quot;TAG1&quot;}" />
		<path
   style="fill:#010002"
   d="m 33.323,41.218 2.738,-2.527 C 51.9,24.129 71.477,15.357 92.681,13.342 l 3.912,-0.372 0.014,24.483 h 6.277 V 12.916 l 3.733,0.179 c 23.492,1.092 45.788,10.608 62.773,26.809 l 2.641,2.516 -15.339,15.378 4.452,4.441 15.153,-15.164 2.487,3.164 c 9.996,12.705 16.72,27.865 19.437,43.837 l 0.705,4.166 -21.101,0.014 v 6.292 h 21.641 l 0.172,4.32 c 0.036,0.551 0.072,1.092 0.072,1.653 0,17.114 -4.559,34.01 -13.192,48.858 l -2.33,4.008 -16.788,-16.77 -4.434,4.445 14.595,14.598 h 10.364 c 10.601,-16.459 16.194,-35.474 16.194,-55.143 C 204.119,54.254 158.331,8.47 102.054,8.47 45.781,8.471 0,54.255 0,110.518 c 0,19.691 5.601,38.705 16.198,55.143 h 10.579 l 14.902,-13.02 -4.13,-4.738 -17.629,15.411 -2.187,-3.729 c -8.718,-14.92 -13.32,-31.877 -13.32,-49.066 0,-0.562 0.036,-1.102 0.082,-1.653 l 0.165,-4.309 20.872,-0.021 V 98.244 H 5.189 L 5.894,94.071 C 8.721,77.408 15.829,61.75 26.422,48.788 l 2.498,-3.056 15,14.983 0.487,-0.476 0.505,-0.523 3.454,-3.45 z"
   id="path59"
   inkscape:connector-curvature="0" />
		<rect
   x="58.049"
   y="188.967"
   style="fill:#010002"
   width="88.025002"
   height="6.6820002"
   id="rect61" />
	<path
   style="fill:none;stroke:#000000;stroke-width:1.01138568px;stroke-linecap:butt;stroke-linejoin:miter;stroke-opacity:1"
   d="M 37.549001,147.903 C 28.697353,135.4178 24.368651,119.79636 25.532001,104.536 26.957193,85.840905 36.614914,68.085924 50.975383,56.031271 65.335853,43.976618 84.135076,37.577928 102.884,37.453 c 19.65717,-0.130979 39.60225,6.757579 53.80801,20.345 12.66254,12.111373 20.32913,29.246314 21.133,46.75 0.76265,16.60624 -4.61026,33.42538 -14.85901,46.51401"
   id="path3842"
   inkscape:connector-curvature="0"
   inkscape:path-effect="#path-effect3844"
   inkscape:original-d="M 37.549001,147.903 C 33.544357,133.44632 29.53869,118.99066 25.532001,104.536 21.525311,90.081341 77.101025,59.812992 102.884,37.453 c 25.78298,-22.359992 35.87303,13.562326 53.80801,20.345 17.93497,6.782675 14.08968,31.16566 21.133,46.75 7.0433,15.58434 -9.90499,31.00832 -14.85901,46.51401" /><path
   style="fill:none;stroke:#000000;stroke-width:1.01138568px;stroke-linecap:butt;stroke-linejoin:miter;stroke-opacity:1"
   d="m 43.920001,60.715 c 0.811833,-0.55096 1.683884,-1.025261 2.4355,-1.65288 0.198213,-0.165512 -0.183632,-0.58075 0,-0.761642 0.913546,-0.89991 0,1.173264 0,0.380821 0,-0.283847 0.184236,-0.562306 0.389542,-0.764549 0.09182,-0.09045 0.389543,-0.129847 0.389543,-0.0029 0,0.12694 -0.389543,0.129847 -0.389543,0.0029 0,-0.17952 0.225297,-0.302218 0.389543,-0.383728 0.116139,-0.05764 0.297725,0.08754 0.389542,-0.0029 0.09182,-0.09045 -0.07109,-0.274067 0,-0.380821 0.224533,-0.337147 0.561248,-0.588862 0.841873,-0.883293"
   id="path3848"
   inkscape:connector-curvature="0" /><path
   style="fill:none;stroke:#000000;stroke-width:1.01138568px;stroke-linecap:butt;stroke-linejoin:miter;stroke-opacity:1"
   d="m 48.056869,56.584754 c 0.0326,0.102902 0.07086,0.136062 0.137723,0.200933 0.01148,0.01113 0.02717,0.01927 0.03443,0.0334 0.0051,0.01 -0.0081,0.02579 0,0.03366 0.0081,0.0078 0.02632,-0.0081 0.03443,-2.57e-4 0.0081,0.0078 -0.0081,0.02579 0,0.03366 0.0081,0.0078 0.02632,-0.0081 0.03443,-2.57e-4 0.01623,0.01575 -0.01027,0.04733 0,0.06732 0.0073,0.01414 0.02543,0.02027 0.03443,0.0334 0.01424,0.02077 0.02019,0.0463 0.03443,0.06706 0.018,0.02628 0.05435,0.03853 0.06886,0.06681 0.01623,0.03161 0.01265,0.07251 0.03443,0.100723 0.01539,0.01996 0.04751,0.01939 0.06886,0.03315 0.0791,0.05096 -0.01476,0.01934 0.06886,0.100466 0.08338,0.04014 0.05072,0.01554 0.103293,0.06655 0.01148,0.01113 0.02295,0.02227 0.03443,0.0334 0,0.01122 -0.0081,0.02579 0,0.03366 0.01815,0.0176 0.05072,0.01554 0.06886,0.03315 0.0081,0.0078 -0.0081,0.02579 0,0.03366 0.0081,0.0078 0.02632,-0.0081 0.03443,-2.57e-4 0.0081,0.0078 -0.0081,0.02579 0,0.03366 0.0081,0.0078 0.02295,-1.71e-4 0.03443,-2.57e-4 0.01148,-8.6e-5 0.02295,-1.71e-4 0.03443,-2.57e-4"
   id="path3852"
   inkscape:connector-curvature="0" /><path
   style="fill:none;stroke:#000000;stroke-width:1.01138568px;stroke-linecap:butt;stroke-linejoin:miter;stroke-opacity:1"
   d="m 46.541906,57.168281 c 0.05738,-4.28e-4 0.115346,-0.0088 0.172155,-0.0013 0.02541,0.0033 0.04504,0.024 0.06886,0.03315 0.0337,0.01293 0.0696,0.01996 0.103293,0.03289 0.02383,0.0091 0.04504,0.024 0.06886,0.03315 0.03369,0.01293 0.06808,0.02454 0.103292,0.03289 0.01114,0.0026 0.02417,-0.0052 0.03443,-2.57e-4 0.157577,0.07584 -0.146105,-0.01286 0.103294,0.06655 0.01088,0.0034 0.02416,-0.0052 0.03443,-2.57e-4 0.01451,0.007 0.01992,0.02641 0.03443,0.0334 0.01027,0.0049 0.02355,-0.0037 0.03443,-2.57e-4 0.02435,0.0077 0.04452,0.0254 0.06886,0.03315 0.01088,0.0034 0.02416,-0.0052 0.03443,-2.57e-4 0.01452,0.007 0.01992,0.02641 0.03443,0.0334 0.01027,0.0049 0.02416,-0.0052 0.03443,-2.57e-4 0.01452,0.007 0.01992,0.02641 0.03443,0.0334 0.01026,0.0049 0.02632,-0.0081 0.03443,-2.57e-4 0.0081,0.0078 -0.01027,0.02872 0,0.03366 0.02113,0.01017 0.150811,-0.01156 0.172155,-0.0013 0.01452,0.007 0.01992,0.02641 0.03443,0.0334 0.02053,0.0099 0.04833,-0.0104 0.06886,-5.14e-4 0.04586,0.02208 0.02301,0.04473 0.06886,0.06681 0.02755,0.01326 0.07575,-0.01402 0.103294,-7.7e-4 0.01027,0.0049 -0.0081,0.02579 0,0.03366 0.01623,0.01575 0.05263,-0.01626 0.06886,-5.14e-4 0.0081,0.0078 -0.0081,0.02579 0,0.03366 0.0081,0.0078 0.02416,-0.0052 0.03443,-2.57e-4 0.07837,0.07603 -0.0072,0.009 0.06886,0.03315 0.02434,0.0077 0.04452,0.0254 0.06886,0.03315 0.01089,0.0034 0.02417,-0.0052 0.03443,-2.57e-4 0.01451,0.007 0.01992,0.02641 0.03443,0.0334 0.0091,0.0043 0.119719,-8.93e-4 0.137723,-10e-4"
   id="path3854"
   inkscape:connector-curvature="0" /><path
   style="fill:none;stroke:#000000;stroke-width:1.01138568px;stroke-linecap:butt;stroke-linejoin:miter;stroke-opacity:1"
   d="m 46.507475,59.188146 c 0.113037,-0.03397 0.164909,-0.09513 0.241017,-0.170099 0.01148,-0.01131 0.01992,-0.02671 0.03443,-0.03392 0.01027,-0.0051 0.02632,0.0077 0.03443,-2.57e-4 0.0081,-0.008 -0.0081,-0.02567 0,-0.03366 0.0081,-0.008 0.02632,0.0077 0.03443,-2.57e-4 0.0081,-0.008 -0.0081,-0.02567 0,-0.03366 0.0081,-0.008 0.02632,0.0077 0.03443,-2.57e-4 0.0081,-0.008 -0.0081,-0.02567 0,-0.03366 0.01815,-0.01788 0.05071,-0.0163 0.06886,-0.03417 0.0081,-0.008 -0.0081,-0.02567 0,-0.03366 0.01815,-0.01788 0.05071,-0.0163 0.06886,-0.03417 0.0081,-0.008 -0.0081,-0.02567 0,-0.03366 0.01815,-0.01787 0.05072,-0.0163 0.06886,-0.03417 0.0081,-0.008 -0.0081,-0.02567 0,-0.03366 0.0081,-0.008 0.02416,0.0048 0.03443,-2.57e-4 0.0091,-0.0046 0.09872,-0.09278 0.103293,-0.101751 0.0051,-0.01008 -0.0081,-0.02567 0,-0.03366 0.07123,-0.07017 -0.0028,0.106447 0.06886,-0.03417 0.0051,-0.01008 -0.0051,-0.02358 0,-0.03366 0.0073,-0.01424 0.02543,-0.02065 0.03443,-0.03392 0.01424,-0.02099 0.02019,-0.04659 0.03443,-0.06758 0.018,-0.02654 0.0586,-0.03765 0.06886,-0.06783 0.0073,-0.02134 -0.01027,-0.04717 0,-0.06732 0.0051,-0.01008 0.02632,0.0077 0.03443,-2.57e-4 0.0081,-0.008 -0.0051,-0.02358 0,-0.03366 0.0073,-0.01424 0.02295,-0.02261 0.03443,-0.03392 0.01148,-0.01131 0.01992,-0.02671 0.03443,-0.03392 0.01027,-0.0051 0.02632,0.0077 0.03443,-2.57e-4 0.01815,-0.01788 0.02019,-0.04659 0.03443,-0.06758 0.018,-0.02654 0.05435,-0.03935 0.06886,-0.06783 0.0051,-0.01008 -0.0081,-0.02567 0,-0.03366 0.0081,-0.008 0.02417,0.0048 0.03443,-2.57e-4 0.01452,-0.0072 0.02295,-0.02261 0.03443,-0.03392 0.01148,-0.01131 0.02717,-0.01967 0.03443,-0.03392 0.01026,-0.02015 -0.02007,-0.05627 0,-0.06732 0.0988,-0.05441 0.206573,-0.09132 0.309859,-0.13698"
   id="path3856"
   inkscape:connector-curvature="0" /><path
   style="fill:none;stroke:#000000;stroke-width:1.01138568px;stroke-linecap:butt;stroke-linejoin:miter;stroke-opacity:1"
   d="m 45.199097,58.693008 c -0.01682,0.13502 0.160527,0.04361 0.206587,0.06578 0.01451,0.007 0.01991,0.02641 0.03443,0.0334 0.01027,0.0049 0.02417,-0.0052 0.03443,-2.57e-4 0.01452,0.007 0.01992,0.02641 0.03443,0.0334 0.02164,0.01042 0.116084,-0.01145 0.137724,-10e-4 0.01026,0.0049 -0.0081,0.02579 0,0.03366 0.0081,0.0078 0.02295,-1.71e-4 0.03443,-2.57e-4 0.03104,-2.32e-4 0.150484,-0.0082 0.172156,-0.0013 0.07577,0.02412 0.06196,0.04217 0.137723,0.06629 0.01088,0.0034 0.02295,-1.72e-4 0.03443,-2.57e-4 0.03443,-2.57e-4 0.06953,-0.0071 0.103293,-7.71e-4 0.02516,0.0047 0.04397,0.02725 0.06886,0.03315 0.02227,0.0052 0.04659,-0.0057 0.06886,-5.14e-4 0.06231,-0.02076 0.06403,0.05405 0.103293,0.06655 0.03266,0.0104 0.06886,-5.14e-4 0.103293,-7.71e-4 0.01148,-8.5e-5 0.03218,-0.01124 0.03443,-2.57e-4 0.01125,0.05493 10e-7,0.112201 10e-7,0.168301"
   id="path3858"
   inkscape:connector-curvature="0" /><path
   style="fill:none;stroke:#000000;stroke-width:1.01138568px;stroke-linecap:butt;stroke-linejoin:miter;stroke-opacity:1"
   d="m 46.507469,59.188155 c -0.141093,0.449349 0.01838,0.437436 -0.17215,0.438858 -0.01148,8.6e-5 -0.02632,-0.0077 -0.03443,2.57e-4 -0.0081,0.008 0.0051,0.02358 0,0.03366 -0.01451,0.02849 -0.05435,0.03935 -0.06886,0.06783 -0.0051,0.01007 0.0081,0.02567 0,0.03366 -0.0081,0.008 -0.02632,-0.0077 -0.03443,2.57e-4 -0.0081,0.008 0.0081,0.02567 0,0.03366 -0.0081,0.008 -0.02632,-0.0077 -0.03443,2.57e-4 -0.0081,0.008 0.0051,0.02359 0,0.03366 -0.0073,0.01424 -0.02717,0.01967 -0.03443,0.03392 -0.0051,0.01008 0.0081,0.02567 0,0.03366 -0.0081,0.008 -0.02632,-0.0077 -0.03443,2.57e-4 -0.01815,0.01788 -0.01629,0.0497 -0.03443,0.06758 -0.0081,0.008 -0.02632,-0.0077 -0.03443,2.57e-4 -0.0081,0.008 0.0051,0.02358 0,0.03366 -0.0073,0.01424 -0.02717,0.01967 -0.03443,0.03392 -0.0051,0.01008 0,0.02244 0,0.03366 -0.01148,0.01131 -0.02717,0.01967 -0.03443,0.03392 -0.0051,0.01008 0.0081,0.02567 0,0.03366 -0.0081,0.008 -0.02632,-0.0077 -0.03443,2.57e-4 -0.0081,0.008 0.0081,0.02567 0,0.03366 -0.0081,0.008 -0.02417,-0.0048 -0.03443,2.57e-4 -0.01452,0.0072 -0.01991,0.02671 -0.03443,0.03392 -0.01027,0.0051 -0.02632,-0.0077 -0.03443,2.57e-4 -0.07124,0.07017 0.108863,-0.0035 -0.03443,0.06758 -0.02053,0.01019 -0.05263,-0.01548 -0.06886,5.14e-4 -0.0081,0.008 0.0081,0.02567 0,0.03366 -0.0094,0.0093 -0.119045,-0.0082 -0.137723,10e-4 -0.01451,0.0072 -0.01992,0.02671 -0.03443,0.03392 -0.01026,0.0051 -0.02416,-0.0048 -0.03443,2.57e-4 -0.01451,0.0072 -0.01992,0.02671 -0.03443,0.03392 -0.01027,0.0051 -0.02416,-0.0048 -0.03443,2.57e-4 -0.01452,0.0072 -0.01991,0.02671 -0.03443,0.03392 -0.02378,0.0118 -0.160069,-0.01063 -0.172156,0.0013 -0.0081,0.008 0.0081,0.02567 0,0.03366 -0.01722,0.01696 -0.08608,-0.01619 -0.103292,7.71e-4 -0.0081,0.008 0.0081,0.02567 0,0.03366 -0.0083,0.0082 -0.129439,-0.0071 -0.137725,10e-4 -0.0081,0.008 0.0081,0.02567 0,0.03366 -0.04591,0.04522 -0.03443,-0.05584 -0.03443,0.03392 0,0.01122 0,0.04488 0,0.03366 0,-0.166056 0,0.01795 0,0.06732 0,0.0082 0.0011,0.09989 0,0.100981 -0.03397,0.03346 -0.06886,-0.06846 -0.06886,0.03417"
   id="path3864"
   inkscape:connector-curvature="0" /><path
   style="fill:none;stroke:#000000;stroke-width:1.01138568px;stroke-linecap:butt;stroke-linejoin:miter;stroke-opacity:1"
   d="m 44.889219,57.584537 -0.03443,0.538819"
   id="path3866"
   inkscape:connector-curvature="0" /><path
   style="fill:none;stroke:#000000;stroke-width:1.01138568px;stroke-linecap:butt;stroke-linejoin:miter;stroke-opacity:1"
   d="m 45.199097,60.510655 c -0.04591,0.02278 -0.09007,0.04935 -0.137723,0.06835 -0.09182,6.85e-4 0.01148,-0.01131 -0.03443,0.03392 -0.0081,0.008 -0.02632,-0.0077 -0.03443,2.57e-4 -0.0081,0.008 0.0081,0.02567 0,0.03366 -0.0081,0.008 -0.02416,-0.0048 -0.03443,2.57e-4 -0.01451,0.0072 -0.02295,0.02261 -0.03443,0.03392 -0.01148,0.01131 -0.02717,0.01967 -0.03443,0.03392 -0.0051,0.01008 0.0081,0.02567 0,0.03366 -0.0081,0.008 -0.02632,-0.0077 -0.03443,2.57e-4 -0.0081,0.008 0.0081,0.02567 0,0.03366 -0.0081,0.008 -0.02417,-0.0048 -0.03443,2.57e-4 -0.01451,0.0072 -0.01992,0.02671 -0.03443,0.03392 -0.01027,0.0051 -0.02632,-0.0077 -0.03443,2.57e-4 -0.07123,0.07017 0.108864,-0.0035 -0.03443,0.06758 -0.01027,0.0051 -0.02295,1.71e-4 -0.03443,2.57e-4 -0.01148,8.5e-5 -0.04469,0.0053 -0.03443,2.57e-4 0.07819,-0.0388 0.160695,-0.06853 0.241042,-0.102799"
   id="path3868"
   inkscape:connector-curvature="0" /><path
   style="fill:#00ff00;stroke-width:0.3808209"
   d="M 19.054457,157.72801 C 11.331325,143.55974 7.4448433,130.62223 6.2884641,115.23198 6.0614305,112.21039 5.9898262,108.22605 6.1293435,106.3779 l 0.2536679,-3.36029 h 9.5991336 9.599134 l 0.238408,6.75957 c 0.241891,6.85832 0.876366,11.09838 2.56241,17.12405 1.523236,5.44381 4.816519,12.81898 7.822414,17.51795 1.310166,2.04812 1.332856,2.14385 0.660227,2.78568 -2.86588,2.73466 -15.459029,13.69753 -15.734474,13.69753 -0.189998,0 -1.124111,-1.42847 -2.075807,-3.17438 z"
   id="path38"
   inkscape:connector-curvature="0"
   transform="matrix(1.0229009,-0.00763362,0,1,-1.5581681,1.9157326)" /><path
   style="fill:#ffff00;stroke-width:0.3808209"
   d="M 7.4943221,92.069012 C 10.536757,75.142727 17.021197,60.555486 27.290355,47.536327 l 2.45972,-3.118414 5.689454,5.78416 c 3.1292,3.181288 6.507009,6.652814 7.506243,7.714503 l 1.816787,1.930343 -2.523436,3.020328 C 35.120598,71.387486 28.907406,84.05905 27.173845,93.592295 l -0.467437,2.570541 H 16.73244 6.7584729 Z"
   id="path40"
   inkscape:connector-curvature="0"
   transform="matrix(1.0229009,-0.00763362,0,1,-1.5581681,1.9157326)" /><path
   style="fill:#ccff00;stroke-width:0.3808209"
   d="m 41.887797,47.322558 -7.481672,-7.711623 2.975538,-2.790533 c 3.530598,-3.311081 10.080701,-8.30493 14.590575,-11.123965 7.877251,-4.923918 19.125762,-9.476171 28.586514,-11.568914 3.611122,-0.79879 12.806675,-2.126102 14.729527,-2.126102 0.373734,0 0.47836,2.604351 0.47836,11.907248 V 35.815917 L 90.911173,36.4733 c -14.244586,1.928578 -27.651681,7.587749 -38.253068,16.14672 -1.644636,1.327789 -3.057385,2.414161 -3.139442,2.414161 -0.08206,0 -3.515947,-3.470231 -7.630866,-7.711623 z"
   id="path42"
   inkscape:connector-curvature="0"
   transform="matrix(1.0229009,-0.00763362,0,1,-1.5581681,1.9157326)" /><path
   style="fill:#ccff00;stroke-width:0.3808209"
   d="M 19.527948,158.14144 C 13.433837,147.59425 9.1630505,135.19303 7.232761,122.43948 6.5413387,117.87121 6.0327527,106.51606 6.4257419,104.42124 l 0.2633226,-1.40363 h 9.2803635 9.280364 l 0.20917,2.76095 c 0.115043,1.51853 0.304701,4.69917 0.421463,7.06809 0.501311,10.17088 3.821734,20.80787 9.540169,30.56197 0.934796,1.59451 1.699629,3.00205 1.699629,3.12787 0,0.44595 -15.464109,13.98508 -15.973465,13.98508 -0.13397,0 -0.862434,-1.07106 -1.61881,-2.38013 z"
   id="path44"
   inkscape:connector-curvature="0"
   transform="matrix(1.0229009,-0.00763362,0,1,-1.5581681,1.9157326)" /><path
   style="fill:#ffff00;stroke-width:0.3808209"
   d="m 7.0353731,95.614649 c 0,-1.22461 2.3462186,-11.745354 3.4415749,-15.432464 3.358992,-11.306793 9.23469,-22.63845 16.797653,-32.39534 1.29383,-1.669156 2.377961,-3.034828 2.40918,-3.034828 0.191768,0 14.505406,14.562494 14.608327,14.862307 0.06968,0.202992 -0.944653,1.697516 -2.254082,3.321164 -7.098762,8.802224 -13.285837,21.388857 -14.951347,30.416171 l -0.483524,2.620767 -9.783891,0.101633 c -8.4099703,0.08736 -9.7838909,0.02285 -9.7838909,-0.45941 z"
   id="path46"
   inkscape:connector-curvature="0"
   transform="matrix(1.0229009,-0.00763362,0,1,-1.5581681,1.9157326)" /><path
   style="fill:#ffd42a;stroke-width:0.3808209"
   d="m 42.067232,47.202522 -7.422345,-7.450838 2.977648,-2.82893 c 6.122683,-5.816887 14.729903,-11.70903 22.537352,-15.428128 10.772654,-5.131581 18.771537,-7.317896 33.932412,-9.27466 l 1.181813,-0.152533 0.246266,4.024854 c 0.135443,2.213671 0.246261,7.503504 0.246261,11.755186 v 7.73033 l -1.237667,0.207019 c -0.680718,0.113861 -2.951362,0.467848 -5.045877,0.786638 -13.427032,2.043628 -26.728071,7.798141 -37.02645,16.018989 -1.418408,1.132265 -2.666255,2.059621 -2.772995,2.06079 -0.10674,0.0011 -3.534128,-3.350756 -7.616418,-7.448717 z"
   id="path48"
   inkscape:connector-curvature="0"
   transform="matrix(1.0229009,-0.00763362,0,1,-1.5581681,1.9157326)" /><path
   style="fill:#ffcc00;stroke-width:0.3808209"
   d="m 152.31854,54.055521 c -2.93665,-2.747543 -8.71469,-6.798489 -13.13832,-9.211194 -9.14801,-4.989441 -21.34299,-8.36064 -32.8458,-9.079951 l -4.09383,-0.256001 V 23.754898 12.001421 l 1.04726,3.18e-4 c 2.02338,6.13e-4 9.4613,0.789065 12.85271,1.362439 15.02099,2.539549 29.08229,8.66078 41.69988,18.152997 2.79252,2.100808 11.43046,9.775206 11.4137,10.140518 -0.006,0.130992 -3.21918,3.53526 -7.14039,7.56504 l -7.12946,7.326875 z"
   id="path50"
   inkscape:connector-curvature="0"
   transform="matrix(1.0229009,-0.00763362,0,1,-1.5581681,1.9157326)" /><path
   style="fill:#ffd42a;stroke-width:0.3808209"
   d="m 41.969207,47.041238 -7.32432,-7.231301 2.284926,-2.111007 C 49.847255,25.764701 64.571098,18.009607 80.946164,14.515378 c 5.05499,-1.078669 13.934332,-2.384578 14.22657,-2.09234 0.110358,0.110359 0.31607,5.346767 0.457141,11.636463 l 0.256487,11.43581 -4.534507,0.673445 c -14.186107,2.106858 -27.400576,7.569673 -38.203371,15.793141 -1.669462,1.270852 -3.21979,2.310642 -3.445172,2.310642 -0.225382,0 -3.705729,-3.254084 -7.734105,-7.231301 z"
   id="path52"
   inkscape:connector-curvature="0"
   transform="matrix(1.0229009,-0.00763362,0,1,-1.5581681,1.9157326)" /><path
   style="fill:#ff0000;stroke-width:0.3808209"
   d="m 174.71094,93.401885 c -1.99753,-10.369125 -7.60364,-22.765826 -13.6772,-30.244146 -0.70905,-0.873056 -1.28919,-1.73164 -1.28919,-1.907965 0,-0.176325 3.17658,-3.489187 7.05908,-7.361916 l 7.05908,-7.041326 0.75876,0.952052 c 7.92004,9.937588 14.34815,22.301847 17.81881,34.27388 0.96847,3.340713 2.48291,10.228346 3.20283,14.566399 l 0.1738,1.047257 h -10.14032 -10.14032 z"
   id="path54"
   inkscape:connector-curvature="0"
   transform="matrix(1.0229009,-0.00763362,0,1,-1.5581681,1.9157326)" /><path
   style="fill:#ff6600;stroke-width:0.3808209"
   d="m 175.55836,96.829273 c -0.10735,-0.471266 -0.55305,-2.549287 -0.99045,-4.617826 -1.84671,-8.733453 -6.79041,-20.055233 -11.77795,-26.973229 -1.46553,-2.032759 -2.66459,-3.833923 -2.66459,-4.002587 0,-0.360023 13.41154,-13.817868 13.77033,-13.817868 0.36837,0 4.92377,6.26096 7.06557,9.710933 4.47712,7.211681 8.03916,14.83222 10.50233,22.468432 1.22707,3.804108 4.07811,16.030091 4.07811,17.487961 0,0.532072 -1.13521,0.601031 -9.89409,0.601031 h -9.89408 z"
   id="path58"
   inkscape:connector-curvature="0"
   transform="matrix(1.0229009,-0.00763362,0,1,-1.5581681,1.9157326)" /><path
   style="fill:#d40000;stroke-width:0.3808209"
   d="m 173.21369,154.01916 -8.04724,-8.32379 2.93521,-5.82043 c 5.26162,-10.43364 8.01819,-21.67852 8.01819,-32.70865 v -3.00622 h 10.05067 10.05068 l 0.25459,3.71301 c 0.14002,2.04215 0.0713,6.06097 -0.15263,8.93071 -0.91819,11.76491 -3.50081,22.30295 -8.02306,32.73701 -1.65547,3.81963 -6.49241,12.91168 -6.83271,12.84352 -0.11355,-0.0227 -3.82772,-3.78706 -8.2537,-8.36516 z"
   id="path60"
   inkscape:connector-curvature="0"
   transform="matrix(1.0229009,-0.00763362,0,1,-1.5581681,1.9157326)" /></g>
</g>
<g
   id="g67">
</g>
<g
   id="g69">
</g>
<g
   id="g71">
</g>
<g
   id="g73">
</g>
<g
   id="g75">
</g>
<g
   id="g77">
</g>
<g
   id="g79">
</g>
<g
   id="g81">
</g>
<g
   id="g83">
</g>
<g
   id="g85">
</g>
<g
   id="g87">
</g>
<g
   id="g89">
</g>
<g
   id="g91">
</g>
<g
   id="g93">
</g>
<g
   id="g95">
</g>
</svg>